<?xml version="1.0" encoding="utf-8"?>
<!-- Generator: Adobe Illustrator 16.0.0, SVG Export Plug-In . SVG Version: 6.00 Build 0)  -->
<!DOCTYPE svg PUBLIC "-//W3C//DTD SVG 1.1//EN" "http://www.w3.org/Graphics/SVG/1.1/DTD/svg11.dtd">
<svg version="1.1" id="图层_1" xmlns="http://www.w3.org/2000/svg" xmlns:xlink="http://www.w3.org/1999/xlink" x="0px" y="0px"
	 width="100px" height="100px" viewBox="0 0 100 100" enable-background="new 0 0 100 100" xml:space="preserve">
<path fill="#9F9E9E" d="M94.695,38.152v22.445l-0.12,0.06l-0.978,0.485l-0.027-0.014V38.71L94.695,38.152z"/>
<path fill="#9F9E9E" d="M94.695,60.598v1.424L49.746,84.428v-1.382l44.846-22.36l-0.017-0.028L94.695,60.598z"/>
<path fill="#DCDADB" d="M93.57,38.71v22.419L49.867,39.34l-0.098-0.045l-0.024,0.014v-22.42l0.028-0.015L93.57,38.71z"/>
<path fill="#FFFFFF" d="M93.598,61.143l0.978-0.485l0.017,0.028l-44.846,22.36L5.964,61.218l0.056-0.112l0.028-0.012l43.697-21.785
	l0.024-0.014l0.098,0.045L93.57,61.129L93.598,61.143z M49.828,15.784l44.867,22.368L93.57,38.71L49.773,16.874l-0.028-0.015v0.029
	L6.048,38.675l-0.896-0.446l-0.227-0.112l44.863-22.368l0.047,0.023L49.828,15.784z"/>
<path fill="#FFFFFF" d="M49.773,16.874l-0.028,0.015v-0.029L49.773,16.874z"/>
<path fill="#9F9E9E" d="M6.048,38.675l43.697-21.786v22.42L6.048,61.094V38.675z"/>
<path fill="#DCDADB" d="M49.746,83.046v1.382L4.9,62.066v-1.381l1.063,0.532L49.746,83.046z M6.048,61.094L6.02,61.105l-1.094-0.545
	V38.686l0.227-0.457l0.896,0.446V61.094z"/>
<g>
	
		<path fill="none" stroke="#595757" stroke-width="0.25" stroke-linecap="round" stroke-linejoin="round" stroke-miterlimit="10" d="
		M94.695,60.598v1.424L49.746,84.428L4.9,62.066v-1.381"/>
	
		<path fill="none" stroke="#595757" stroke-width="0.25" stroke-linecap="round" stroke-linejoin="round" stroke-miterlimit="10" d="
		M4.9,60.686l1.063,0.532l43.782,21.828 M94.592,60.686l-44.846,22.36 M49.746,84.428v-1.382 M49.77,39.295l-0.024,0.014
		L6.048,61.094L6.02,61.105l-1.094-0.545V38.686 M4.926,38.116l44.863-22.368l0.047,0.023l1.076,0.535 M4.926,38.116l0.227,0.112
		l0.896,0.446 M49.803,16.859l-0.029,0.015l-0.028,0.015L6.048,38.675 M6.048,61.105V38.675 M49.828,15.784l44.867,22.368
		 M94.695,38.152v22.445l-0.12,0.06l-0.978,0.485l-0.027-0.014L49.867,39.34 M93.57,38.71l1.125-0.558"/>
	
		<path fill="none" stroke="#595757" stroke-width="0.25" stroke-linecap="round" stroke-linejoin="round" stroke-miterlimit="10" d="
		M93.57,38.71L49.773,16.874l-0.028-0.015 M93.57,38.71v22.433 M49.745,39.382V16.859"/>
</g>
<path fill="none" stroke="#FFFFFF" stroke-width="5" stroke-miterlimit="10" d="M99,86.332c0,6.72-5.447,12.168-12.168,12.168
	H14.167C7.447,98.5,2,93.052,2,86.332V13.667C2,6.947,7.447,1.5,14.167,1.5h72.665C93.553,1.5,99,6.947,99,13.667V86.332z"/>
</svg>
