<?xml version="1.0" encoding="utf-8"?>
<!-- Generator: Adobe Illustrator 16.0.0, SVG Export Plug-In . SVG Version: 6.00 Build 0)  -->
<!DOCTYPE svg PUBLIC "-//W3C//DTD SVG 1.1//EN" "http://www.w3.org/Graphics/SVG/1.1/DTD/svg11.dtd">
<svg version="1.1" id="图层_1" xmlns="http://www.w3.org/2000/svg" xmlns:xlink="http://www.w3.org/1999/xlink" x="0px" y="0px"
	 width="30.875px" height="35px" viewBox="0 0 30.875 35" enable-background="new 0 0 30.875 35" xml:space="preserve">
<path fill="#DBD9D9" d="M5.322,9.933v12l9.999,4.989v-12l-9.99-4.99H5.322L5.322,9.933z"/>
<path fill="#FFFFFF" d="M5.331,9.933l9.99,4.99l9.99-4.99l-9.99-4.99L5.331,9.933z"/>
<path fill="#9F9E9E" d="M25.32,21.934v-12h-0.01l-9.991,4.99v12L25.32,21.934z"/>
<g>
	
		<path fill="none" stroke="#595757" stroke-width="0.25" stroke-linecap="round" stroke-linejoin="round" stroke-miterlimit="10" d="
		M5.331,9.933l9.99-4.99l9.99,4.99 M25.32,9.933v12l-10,4.989l-9.999-4.989v-12"/>
	
		<path fill="none" stroke="#595757" stroke-width="0.25" stroke-linecap="round" stroke-linejoin="round" stroke-miterlimit="10" d="
		M15.321,14.923l9.99-4.99h0.01 M15.321,14.923l-9.99-4.99H5.322 M15.321,14.923v12"/>
</g>
</svg>
