<?xml version="1.0" encoding="utf-8"?>
<!-- Generator: Adobe Illustrator 16.0.0, SVG Export Plug-In . SVG Version: 6.00 Build 0)  -->
<!DOCTYPE svg PUBLIC "-//W3C//DTD SVG 1.1//EN" "http://www.w3.org/Graphics/SVG/1.1/DTD/svg11.dtd">
<svg version="1.1" id="图层_1" xmlns="http://www.w3.org/2000/svg" xmlns:xlink="http://www.w3.org/1999/xlink" x="0px" y="0px"
	 width="73.75px" height="38px" viewBox="0 0 73.75 38" enable-background="new 0 0 73.75 38" xml:space="preserve">
<g id="XMLID_2_">
	<g>
		<g id="XMLID_3_">
			<g>
				<polygon fill="#2A7719" points="73.225,18.36 73.225,19.5 36.955,37.58 36.955,36.46 73.145,18.42 73.135,18.411 73.135,18.4 
									"/>
				<polygon fill="#77BC6C" points="1.695,18.75 1.675,18.76 0.985,18.42 0.985,18.411 				"/>
				<polygon fill="#77BC6C" points="73.135,18.4 73.135,18.411 73.145,18.42 36.955,36.46 1.625,18.851 1.675,18.76 1.695,18.75 
					0.985,18.411 37.055,0.44 73.115,18.411 				"/>
				<polygon fill="#77BC6C" points="0.985,18.411 0.985,18.42 0.825,18.331 				"/>
				<polygon fill="#4F9B42" points="36.955,36.46 36.955,37.58 0.775,19.54 0.775,18.431 1.625,18.851 				"/>
			</g>
			<g>
				<polyline fill="none" stroke="#124913" stroke-width="0.25" stroke-miterlimit="10" points="0.985,18.411 1.695,18.75 
					1.675,18.76 0.985,18.42 				"/>
				
					<line fill="none" stroke="#124913" stroke-width="0.25" stroke-miterlimit="10" x1="0.825" y1="18.331" x2="0.985" y2="18.411"/>
				<line fill="none" stroke="#124913" stroke-width="0.25" stroke-miterlimit="10" x1="73.135" y1="18.4" x2="73.225" y2="18.36"/>
				<line fill="none" stroke="#124913" stroke-width="0.25" stroke-miterlimit="10" x1="1.625" y1="18.851" x2="1.675" y2="18.76"/>
				<polyline fill="none" stroke="#124913" stroke-width="0.25" stroke-miterlimit="10" points="73.115,18.411 73.135,18.4 
					73.135,18.411 73.145,18.42 				"/>
				<polyline fill="none" stroke="#124913" stroke-width="0.25" stroke-miterlimit="10" points="73.225,18.36 73.225,19.5 
					36.955,37.58 0.775,19.54 0.775,18.431 				"/>
				<polyline fill="none" stroke="#124913" stroke-width="0.25" stroke-miterlimit="10" points="0.775,18.42 0.775,18.431 
					1.625,18.851 36.955,36.46 				"/>
				
					<line fill="none" stroke="#124913" stroke-width="0.25" stroke-miterlimit="10" x1="73.145" y1="18.42" x2="36.955" y2="36.46"/>
				
					<line fill="none" stroke="#124913" stroke-width="0.25" stroke-miterlimit="10" x1="36.955" y1="37.58" x2="36.955" y2="36.46"/>
				<polyline fill="none" stroke="#124913" stroke-width="0.25" stroke-miterlimit="10" points="0.985,18.42 0.825,18.331 
					0.795,18.32 				"/>
				<polyline fill="none" stroke="#124913" stroke-width="0.25" stroke-miterlimit="10" points="37.095,0.42 37.055,0.44 
					0.985,18.411 0.985,18.42 0.915,18.45 				"/>
				<polyline fill="none" stroke="#124913" stroke-width="0.25" stroke-miterlimit="10" points="37.055,0.44 73.115,18.411 
					73.125,18.42 				"/>
			</g>
		</g>
	</g>
</g>
</svg>
