<?xml version="1.0" encoding="utf-8"?>
<!-- Generator: Adobe Illustrator 16.0.0, SVG Export Plug-In . SVG Version: 6.00 Build 0)  -->
<!DOCTYPE svg PUBLIC "-//W3C//DTD SVG 1.1//EN" "http://www.w3.org/Graphics/SVG/1.1/DTD/svg11.dtd">
<svg version="1.1" id="图层_1" xmlns="http://www.w3.org/2000/svg" xmlns:xlink="http://www.w3.org/1999/xlink" x="0px" y="0px"
	 width="171.75px" height="171.75px" viewBox="0 0 171.75 171.75" enable-background="new 0 0 171.75 171.75" xml:space="preserve">
<path fill="#9F9E9E" d="M162.765,82.419v74.377l-3.624,1.801l-0.09-0.041v-74.29L162.765,82.419z"/>
<path fill="#FFFDFF" d="M162.765,82.419l-3.714,1.848L13.849,11.873l3.695-1.836l0.006-0.018L162.765,82.419z"/>
<path fill="#DCDADB" d="M159.051,84.267v74.29L14.228,86.351h-0.402V11.884l0.024-0.011L159.051,84.267z"/>
<path fill="#DCDADB" d="M13.849,11.873l-0.024,0.011v-0.023L13.849,11.873z"/>
<g>
	<path fill="none" stroke="#595757" stroke-linecap="round" stroke-linejoin="round" stroke-miterlimit="10" d="M17.408,9.948
		l0.142,0.071l145.215,72.4 M162.765,82.419v74.377l-3.624,1.801l-0.09-0.041L14.228,86.351 M159.051,84.267l3.714-1.848"/>
	<path fill="none" stroke="#595757" stroke-linecap="round" stroke-linejoin="round" stroke-miterlimit="10" d="M159.051,84.267
		L13.849,11.873l-0.024-0.012 M159.051,84.267v74.331 M13.825,86.488V11.861"/>
	<path fill="none" stroke="#595757" stroke-linecap="round" stroke-linejoin="round" d="M13.825,11.884l0.024-0.011l3.695-1.836"/>
</g>
</svg>
