<?xml version="1.0" encoding="utf-8"?>
<!-- Generator: Adobe Illustrator 16.0.0, SVG Export Plug-In . SVG Version: 6.00 Build 0)  -->
<!DOCTYPE svg PUBLIC "-//W3C//DTD SVG 1.1//EN" "http://www.w3.org/Graphics/SVG/1.1/DTD/svg11.dtd">
<svg version="1.1" id="图层_1" xmlns="http://www.w3.org/2000/svg" xmlns:xlink="http://www.w3.org/1999/xlink" x="0px" y="0px"
	 width="73.75px" height="38px" viewBox="-0.002 -0.292 73.75 38" enable-background="new -0.002 -0.292 73.75 38"
	 xml:space="preserve">
<g id="XMLID_1_">
	<g>
		<polygon fill="#A87A31" points="73.229,18.165 73.229,19.31 36.959,37.39 36.959,36.273 73.142,18.232 73.147,18.232 
			73.137,18.223 73.132,18.213 		"/>
		<polygon fill="#FFFFFF" points="73.137,18.223 73.147,18.232 73.142,18.232 		"/>
		<polygon fill="#F9CB6E" points="73.113,18.223 73.132,18.213 73.137,18.223 73.142,18.232 36.959,36.273 1.63,18.663 
			1.679,18.571 1.698,18.561 72.321,18.59 72.34,18.604 		"/>
		<polygon fill="#F9CB6E" points="73.113,18.223 72.34,18.604 72.321,18.59 1.698,18.561 0.988,18.223 37.051,0.245 		"/>
		<polygon fill="#CC9F50" points="36.959,36.273 36.959,37.39 0.775,19.349 0.775,18.237 1.63,18.663 		"/>
		<polygon fill="#DCDADB" points="1.698,18.561 1.679,18.571 0.988,18.228 0.988,18.223 		"/>
		<polygon fill="#DCDADB" points="0.988,18.223 0.988,18.228 0.795,18.131 		"/>
		<polygon fill="#DCDADB" points="0.775,18.237 0.775,19.349 0.771,19.349 0.771,18.232 0.775,18.232 		"/>
	</g>
	<g>
		
			<line fill="none" stroke="#555555" stroke-width="0.25" stroke-miterlimit="10" x1="73.132" y1="18.213" x2="73.229" y2="18.165"/>
		<line fill="none" stroke="#555555" stroke-width="0.25" stroke-miterlimit="10" x1="1.63" y1="18.663" x2="1.679" y2="18.571"/>
		<polyline fill="none" stroke="#555555" stroke-width="0.25" stroke-miterlimit="10" points="72.321,18.59 72.34,18.604 
			73.113,18.223 73.132,18.213 73.137,18.223 73.147,18.232 73.142,18.232 		"/>
		<polyline fill="none" stroke="#555555" stroke-width="0.25" stroke-miterlimit="10" points="0.775,19.349 0.771,19.349 
			0.771,18.232 		"/>
		<polyline fill="none" stroke="#555555" stroke-width="0.25" stroke-miterlimit="10" points="73.229,18.165 73.229,19.31 
			36.959,37.39 0.775,19.349 0.775,18.237 		"/>
		<polyline fill="none" stroke="#555555" stroke-width="0.25" stroke-miterlimit="10" points="0.771,18.232 0.775,18.232 
			0.775,18.237 1.63,18.663 36.959,36.273 		"/>
		
			<line fill="none" stroke="#555555" stroke-width="0.25" stroke-miterlimit="10" x1="73.142" y1="18.232" x2="36.959" y2="36.273"/>
		<line fill="none" stroke="#555555" stroke-width="0.25" stroke-miterlimit="10" x1="36.959" y1="37.39" x2="36.959" y2="36.273"/>
		<polyline fill="none" stroke="#555555" stroke-width="0.25" stroke-miterlimit="10" points="1.698,18.561 1.679,18.571 
			0.988,18.228 0.795,18.131 		"/>
		<polyline fill="none" stroke="#555555" stroke-width="0.25" stroke-miterlimit="10" points="37.094,0.226 37.051,0.245 
			0.988,18.223 0.988,18.228 0.916,18.262 		"/>
		<polyline fill="none" stroke="#555555" stroke-width="0.25" stroke-miterlimit="10" points="37.051,0.245 73.113,18.223 
			73.123,18.228 		"/>
	</g>
</g>
</svg>
